<?xml version="1.0" encoding="utf-8"?>
<!-- Generator: Adobe Illustrator 27.4.1, SVG Export Plug-In . SVG Version: 6.00 Build 0)  -->
<svg version="1.1" id="Layer_1" xmlns="http://www.w3.org/2000/svg" xmlns:xlink="http://www.w3.org/1999/xlink" x="0px" y="0px"
	 viewBox="0 0 386.9 410.5" style="enable-background:new 0 0 386.9 410.5;" xml:space="preserve">
<style type="text/css">
	.st0{fill:url(#SVGID_1_);}
	.st1{fill:#3C54A4;}
	.st2{fill:url(#SVGID_00000075879492224577354980000014805568023942675087_);}
	.st3{fill:#929497;}
	.st4{fill:url(#SVGID_00000057843124642459499130000005109617844734167197_);}
	.st5{fill:url(#SVGID_00000014593551468626815040000007390713041032561331_);}
	.st6{fill:#EF4238;}
	.st7{fill:url(#SVGID_00000170967579978418687850000012252208050363282350_);}
	.st8{fill:url(#SVGID_00000098213585018985636650000010981860665945958841_);}
	.st9{fill:#6F7072;stroke:#6F7072;stroke-width:2.7505;stroke-miterlimit:10;}
	.st10{fill:none;stroke:#6F7072;stroke-width:4.9;stroke-miterlimit:10;}
	.st11{enable-background:new    ;}
	.st12{fill:#6F7072;}
	.st13{fill:#FFFFFF;}
	.st14{fill:#3A54A5;}
</style>
<linearGradient id="SVGID_1_" gradientUnits="userSpaceOnUse" x1="153.8397" y1="275.3849" x2="111.6266" y2="219.4273" gradientTransform="matrix(1 0 0 -1 0 412)">
	<stop  offset="0" style="stop-color:#57A4DA"/>
	<stop  offset="1" style="stop-color:#3C54A4"/>
</linearGradient>
<path class="st0" d="M140.1,146l11.8-4l-56.5-32.9c0,0-12.4,50.4,24.6,87.4c15.2,15.2,31.6,23.5,47.1,27.5
	c-3.4-4.3-15.5-20-22.5-36.6C136.4,168,140.1,146,140.1,146z"/>
<path class="st1" d="M215.3,219.6c-2.2,0.4-4.4,0.5-6.6,0.5c-42.3,0-70.1-65.4-69.2-74.2c0,0-3.2,22,5,41.5
	c7,16.6,19.1,32.3,22.5,36.6c8.3,2.1,16.8,3.2,25.4,3.2c9.7,0.1,19.3-1.4,28.6-4.2c12.5-4.2,24.1-10.9,34.1-19.6
	C255.1,203.4,234.8,217.2,215.3,219.6z"/>
<linearGradient id="SVGID_00000044171812193528804920000009832163001913926041_" gradientUnits="userSpaceOnUse" x1="-667.7262" y1="558.072" x2="-709.8893" y2="502.0344" gradientTransform="matrix(-0.5731 0.8195 0.8195 0.5731 -640.7354 313.3379)">
	<stop  offset="0" style="stop-color:#F3F3F3"/>
	<stop  offset="1" style="stop-color:#929497"/>
</linearGradient>
<path style="fill:url(#SVGID_00000044171812193528804920000009832163001913926041_);" d="M199.4,69.4l-3.5,12l59.3-27.5
	c0,0-34.2-39-85.7-29.9c-21.2,3.8-37.4,12.5-49.5,22.8c5.4-0.3,25.3-1.3,42.9,2.5C183.5,53.7,199.4,69.4,199.4,69.4z"/>
<path class="st3" d="M96,88.8c1-2,2.1-3.9,3.3-5.7c24.3-34.7,93.4-20,100.1-14.3c0,0-15.9-15.1-36.5-19.5
	c-17.6-3.8-37.4-2.8-42.9-2.5c-6.5,5.6-12.3,11.9-17.2,18.9c-5.6,7.9-10,16.6-12.9,25.8c-3.7,12.7-4.9,26-3.5,39.2
	C86.5,130.7,86.8,106.1,96,88.8z"/>
<path class="st3" d="M254.3,53.7l-57.5,26.6l3.2-10.8l0.1-0.3l-0.3-0.2c-4.4-3.8-32.8-10.9-59.4-7.6c-8.1,0.9-16,3.1-23.4,6.5
	c-7.2,3.3-13.5,8.4-18.1,14.9c-1.3,1.8-2.4,3.8-3.4,5.8c-5.8,10.9-8.1,24.8-9,33.6c-0.3-10.3,1.1-20.5,4-30.4
	c2.9-9.2,7.3-17.8,12.8-25.7c10.8-15.5,31.1-35.3,66.3-41.5c11.6-2.1,23.4-1.8,34.9,0.8c9.4,2.2,18.5,5.8,26.9,10.7
	C239.8,40.8,247.5,46.8,254.3,53.7 M255.3,53.9c0,0-34.2-39-85.7-29.9c-33.4,5.9-54.4,24.2-66.7,41.8c-5.6,7.9-10,16.6-12.9,25.8
	c-3.7,12.7-4.9,26-3.5,39.2c0,0,0.3-24.6,9.5-41.9c1-2,2.1-3.9,3.3-5.7c24.3-34.7,93.4-19.5,100.1-13.7l-3.5,12L255.3,53.9z"/>
<g id="Layer_7">
	
		<linearGradient id="SVGID_00000169549913626971339550000009289927609995587732_" gradientUnits="userSpaceOnUse" x1="91.2548" y1="348.0964" x2="256.6918" y2="357.2035" gradientTransform="matrix(1 0 0 1 0 -182.74)">
		<stop  offset="0" style="stop-color:#2785C7"/>
		<stop  offset="1" style="stop-color:#2785C7"/>
	</linearGradient>
	<path style="fill:url(#SVGID_00000169549913626971339550000009289927609995587732_);" d="M95.8,110l54.8,31.8l-10.6,3.6l-0.3,0.1
		v0.4c-0.6,5.7,9.9,33.2,27.8,53c5.4,6.1,11.7,11.3,18.7,15.5c6.9,4,14.7,6.2,22.6,6.3c2.2,0,4.5-0.2,6.7-0.5
		c12.2-1.5,24.9-7.6,32.7-11.9c-8.3,6.1-17.5,10.9-27.3,14.2c-9.2,2.8-18.8,4.3-28.4,4.2c-18.9,0-46.8-5.3-72-30.6
		c-8.3-8.3-14.9-18.2-19.3-29.1c-3.6-9-5.9-18.5-6.7-28.1C93.5,129.2,94,119.5,95.8,110 M95.4,109.1c0,0-12.4,50.4,24.6,87.4
		c24,24,51,30.7,72.5,30.7c9.7,0.1,19.3-1.4,28.6-4.2c12.5-4.2,24.1-10.9,34.1-19.6c0,0-20.3,13.8-39.8,16.2
		c-2.2,0.4-4.4,0.5-6.6,0.5c-42.3,0-69.5-65.4-68.6-74.2l11.8-4L95.4,109.1z"/>
</g>
<linearGradient id="SVGID_00000005961795983185638110000000946513246288905140_" gradientUnits="userSpaceOnUse" x1="-731.7028" y1="-357.5567" x2="-774.2558" y2="-412.9845" gradientTransform="matrix(-0.48 -0.88 -0.88 0.48 -446.22 -325.62)">
	<stop  offset="0" style="stop-color:#F69322"/>
	<stop  offset="1" style="stop-color:#F15C2D"/>
</linearGradient>
<path style="fill:url(#SVGID_00000005961795983185638110000000946513246288905140_);" d="M232.6,154.2l-9.2-8.4l-1.8,65.4
	c0,0,50.2-13.2,65-63.4c6.1-20.7,5.5-39,1.6-54.5c-2.1,5-10.1,23.2-21.3,37.3C253.8,147,232.6,154.2,232.6,154.2z"/>
<path class="st6" d="M261.3,53c1.3,1.7,2.6,3.6,3.6,5.5c20.2,37.1-23.7,92.6-31.8,96c0,0,20.6-7.5,33.8-24
	c11.2-14.1,19.2-32.2,21.3-37.3c-2.1-8.3-5.2-16.3-9.3-23.8c-4.6-8.5-10.5-16.3-17.4-23.1c-9.7-9-21.1-16-33.5-20.5
	C228,25.8,249.9,37,261.3,53z"/>
<path class="st6" d="M222.2,210.4l1.7-63.3l8.3,7.6l0.3,0.2l0.3-0.1c5.3-2.2,24.4-24.5,33.2-49.8c2.8-7.6,4.4-15.7,4.7-23.8
	c0.3-8-1.6-15.9-5.3-22.9c-1.1-2-2.3-3.8-3.7-5.6c-7.2-10-18.6-18.3-26.1-23c9.3,4.4,17.9,10.1,25.4,17.1
	c6.9,6.7,12.7,14.4,17.3,22.9c9.1,16.6,17.7,43.6,7.6,77.9c-3.3,11.3-8.8,21.8-16.3,30.9c-6.2,7.5-13.4,14-21.5,19.3
	C240.2,203.2,231.4,207.4,222.2,210.4 M221.6,211.1c0,0,50.2-13.2,65-63.4c9.6-32.6,2.6-59.5-7.7-78.3c-4.6-8.5-10.5-16.3-17.4-23.1
	c-9.7-9-21.1-16-33.5-20.5c0,0,21.9,11.2,33.3,27.2c1.3,1.7,2.6,3.6,3.6,5.5c20.2,37.1-24.2,92.3-32.3,95.7l-9.2-8.4L221.6,211.1z"
	/>
<g>
	
		<linearGradient id="SVGID_00000004518849779689991440000014525872023860850827_" gradientUnits="userSpaceOnUse" x1="43.4313" y1="196.2628" x2="60.2856" y2="196.2628" gradientTransform="matrix(1 0 0 -1 -12.82 463)">
		<stop  offset="0" style="stop-color:#F69320"/>
		<stop  offset="1" style="stop-color:#F15B2A"/>
	</linearGradient>
	<path style="fill:url(#SVGID_00000004518849779689991440000014525872023860850827_);" d="M39.1,255.4l-6.7,3.3l-1.8-6.9l11.1-5h5.8
		v39.9h-8.4V255.4z"/>
	
		<linearGradient id="SVGID_00000039102540477702704090000008328890855454317724_" gradientUnits="userSpaceOnUse" x1="83.2966" y1="196.2817" x2="365.6681" y2="196.2817" gradientTransform="matrix(1 0 0 -1 -12.82 463)">
		<stop  offset="0" style="stop-color:#55A4DB"/>
		<stop  offset="1" style="stop-color:#3A53A4"/>
	</linearGradient>
	<path style="fill:url(#SVGID_00000039102540477702704090000008328890855454317724_);" d="M70.9,246.8H101v7.8H79.6v8.1h18.8v7.8
		H79.6v8.4h21.7v7.8H70.9V246.8z M120.9,246.8h15.6c12.5,0,21.2,8.6,21.2,19.8v0.1c0,11.2-8.7,19.9-21.2,19.9h-15.6V246.8z
		 M136.5,278.8c7.2,0,12-4.8,12-11.9v-0.1c0-7.1-4.8-12-12-12h-6.8v24.1H136.5z M182.6,254.9h-12.1v-8.1h33.1v8.1h-12.1v31.8h-8.8
		L182.6,254.9z M221.2,246.8h30.1v7.8h-21.4v8.1h18.8v7.8h-18.8v8.4h21.7v7.8h-30.4L221.2,246.8z M267.1,266.8v-0.1
		c0-11.3,8.5-20.6,20.8-20.6c7.5,0,12,2.5,15.7,6.1l-5.6,6.4c-3.1-2.8-6.2-4.5-10.2-4.5c-6.7,0-11.5,5.6-11.5,12.4v0.1
		c0,6.8,4.7,12.5,11.6,12.5c4.6,0,7.4-1.8,10.5-4.7l5.6,5.7c-4.1,4.4-8.7,7.1-16.4,7.1C275.8,287.4,267.1,278.3,267.1,266.8
		L267.1,266.8z M319.5,246.8h8.8v15.8h16.2v-15.8h8.8v39.9h-8.8v-16h-16.2v16h-8.8V246.8z"/>
</g>
<g>
	<path class="st9" d="M119.6,304.7H265c3.2,0,5.8,3.3,5.8,7.5v22c0,4.1-2.6,2.8-5.8,2.8H119.6c-3.2,0-5.8,1.3-5.8-2.8v-22
		C113.8,308.1,116.4,304.7,119.6,304.7z"/>
	<path class="st10" d="M46.2,336.4h292.9c6.5,0,11.8,5.3,11.8,11.8v22.5c0,6.5-5.3,11.8-11.8,11.8H46.2c-6.5,0-11.8-5.3-11.8-11.8
		v-22.5C34.5,341.6,39.7,336.4,46.2,336.4z"/>
	<g class="st11">
		<path class="st12" d="M52.8,359.9L52.8,359.9c0-6.8,5.2-12.1,12.2-12.1c4.7,0,7.8,2,9.8,4.8l-4.8,3.7c-1.3-1.7-2.8-2.7-5.1-2.7
			c-3.2,0-5.5,2.7-5.5,6.1v0.1c0,3.5,2.3,6.2,5.5,6.2c2.4,0,3.8-1.1,5.2-2.8l4.8,3.4c-2.2,3-5.1,5.2-10.3,5.2
			C58.1,371.8,52.8,366.8,52.8,359.9z"/>
		<path class="st12" d="M89.3,348.2h18.6v5.5H95.6v3.5h11.1v5.1H95.6v3.7H108v5.5H89.3V348.2z"/>
		<path class="st12" d="M122.9,348.2h10.9c3.5,0,6,0.9,7.5,2.5c1.4,1.3,2.1,3.1,2.1,5.4v0.1c0,3.5-1.9,5.9-4.8,7.1l5.5,8.1h-7.4
			l-4.7-7H132h-2.7v7h-6.4V348.2z M133.5,359.3c2.2,0,3.4-1.1,3.4-2.7v-0.1c0-1.8-1.3-2.7-3.5-2.7h-4.2v5.6H133.5z"/>
		<path class="st12" d="M163.8,353.8h-6.9v-5.6h20.3v5.6h-6.9v17.5h-6.4V353.8z"/>
		<path class="st12" d="M191.7,348.2h6.4v23.1h-6.4V348.2z"/>
		<path class="st12" d="M213.9,348.2h18.5v5.6h-12.1v3.9h10.9v5.3h-10.9v8.3h-6.4V348.2z"/>
		<path class="st12" d="M247,348.2h6.4v23.1H247V348.2z"/>
		<path class="st12" d="M269.2,348.2h18.6v5.5h-12.3v3.5h11.1v5.1h-11.1v3.7H288v5.5h-18.8V348.2z"/>
		<path class="st12" d="M302.8,348.2h8.9c8.3,0,13.1,4.8,13.1,11.4v0.1c0,6.7-4.9,11.6-13.2,11.6h-8.8V348.2z M311.8,365.7
			c3.8,0,6.4-2.1,6.4-5.9v-0.1c0-3.7-2.5-5.9-6.4-5.9h-2.6v11.8H311.8z"/>
	</g>
	<g>
		<path class="st13" d="M134.4,311.2c0.1,0.1,0.1,0.1,0.1,0.2v2.4c0,0.1,0,0.1-0.1,0.2s-0.1,0.1-0.2,0.1h-4.3c-0.1,0-0.1,0-0.1,0.1
			v13.6c0,0.1,0,0.1-0.1,0.2s-0.1,0.1-0.2,0.1h-2.8c-0.1,0-0.1,0-0.2-0.1s-0.1-0.1-0.1-0.2v-13.6c0-0.1,0-0.1-0.1-0.1H122
			c-0.1,0-0.1,0-0.2-0.1c-0.1-0.1-0.1-0.1-0.1-0.2v-2.4c0-0.1,0-0.1,0.1-0.2c0.1-0.1,0.1-0.1,0.2-0.1h12.2
			C134.3,311.1,134.4,311.1,134.4,311.2z"/>
		<path class="st13" d="M142.1,315.8c0.1,0.1,0.2,0.2,0.1,0.4l-0.5,2.8c0,0.2-0.1,0.2-0.3,0.2c-0.2-0.1-0.5-0.1-0.8-0.1
			c-0.1,0-0.3,0-0.5,0c-0.6,0-1.1,0.3-1.5,0.6c-0.4,0.4-0.6,0.9-0.6,1.5v6.6c0,0.1,0,0.1-0.1,0.2s-0.1,0.1-0.2,0.1h-2.8
			c-0.1,0-0.1,0-0.2-0.1s-0.1-0.1-0.1-0.2v-11.9c0-0.1,0-0.1,0.1-0.2s0.1-0.1,0.2-0.1h2.8c0.1,0,0.1,0,0.2,0.1s0.1,0.1,0.1,0.2v0.9
			c0,0,0,0.1,0,0.1c0,0,0.1,0,0.1,0c0.7-1,1.6-1.5,2.7-1.5C141.3,315.5,141.8,315.6,142.1,315.8z"/>
		<path class="st13" d="M150.5,315.7c0.1-0.1,0.1-0.1,0.2-0.1h2.8c0.1,0,0.1,0,0.2,0.1c0.1,0.1,0.1,0.1,0.1,0.2v11.9
			c0,0.1,0,0.1-0.1,0.2c-0.1,0.1-0.1,0.1-0.2,0.1h-2.8c-0.1,0-0.1,0-0.2-0.1c-0.1-0.1-0.1-0.1-0.1-0.2V327c0,0,0-0.1,0-0.1
			c0,0-0.1,0-0.1,0.1c-0.6,0.9-1.6,1.3-3,1.3c-1.2,0-2.2-0.4-3-1.1c-0.8-0.7-1.2-1.8-1.2-3.1v-8.1c0-0.1,0-0.1,0.1-0.2
			c0.1-0.1,0.1-0.1,0.2-0.1h2.8c0.1,0,0.1,0,0.2,0.1s0.1,0.1,0.1,0.2v7.2c0,0.6,0.2,1.2,0.5,1.6c0.3,0.4,0.8,0.6,1.4,0.6
			c0.5,0,1-0.2,1.4-0.5c0.4-0.3,0.6-0.8,0.7-1.3v-7.6C150.4,315.8,150.5,315.8,150.5,315.7z"/>
		<path class="st13" d="M157.9,327.8c-0.8-0.3-1.4-0.7-1.9-1.3s-0.7-1.2-0.7-1.9v-0.2c0-0.1,0-0.1,0.1-0.2c0.1-0.1,0.1-0.1,0.2-0.1
			h2.7c0.1,0,0.1,0,0.2,0.1s0.1,0.1,0.1,0.2v0c0,0.4,0.2,0.7,0.6,0.9s0.9,0.4,1.5,0.4c0.5,0,1-0.1,1.3-0.3c0.3-0.2,0.5-0.5,0.5-0.8
			c0-0.3-0.1-0.5-0.4-0.7s-0.8-0.3-1.4-0.5c-0.8-0.2-1.4-0.4-1.8-0.6c-1-0.4-1.9-0.8-2.5-1.3c-0.6-0.5-0.9-1.3-0.9-2.2
			c0-1.2,0.5-2.1,1.4-2.8c0.9-0.7,2.2-1.1,3.7-1.1c1,0,1.9,0.2,2.7,0.5c0.8,0.3,1.4,0.8,1.8,1.4c0.4,0.6,0.6,1.3,0.6,2
			c0,0.1,0,0.1-0.1,0.2s-0.1,0.1-0.2,0.1h-2.6c-0.1,0-0.1,0-0.2-0.1s-0.1-0.1-0.1-0.2c0-0.4-0.2-0.7-0.5-0.9
			c-0.4-0.2-0.8-0.4-1.4-0.4c-0.5,0-1,0.1-1.3,0.3c-0.3,0.2-0.5,0.5-0.5,0.8c0,0.3,0.2,0.6,0.5,0.7c0.3,0.2,0.9,0.3,1.7,0.5
			c0.2,0,0.4,0.1,0.6,0.2c0.2,0.1,0.5,0.1,0.7,0.2c1.1,0.3,2.1,0.8,2.7,1.3c0.7,0.5,1,1.3,1,2.3c0,1.2-0.5,2.1-1.4,2.8
			c-0.9,0.7-2.2,1-3.8,1C159.7,328.2,158.7,328.1,157.9,327.8z"/>
		<path class="st13" d="M174.4,318.3c-0.1,0.1-0.1,0.1-0.2,0.1h-2.3c-0.1,0-0.1,0-0.1,0.1v5.1c0,0.5,0.1,0.9,0.3,1.2
			c0.2,0.3,0.6,0.4,1.1,0.4h0.8c0.1,0,0.1,0,0.2,0.1c0.1,0.1,0.1,0.1,0.1,0.2v2.3c0,0.2-0.1,0.3-0.3,0.3c-0.7,0-1.2,0-1.5,0
			c-1.3,0-2.3-0.2-3-0.7c-0.7-0.4-1-1.3-1-2.5v-6.5c0-0.1,0-0.1-0.1-0.1h-1.4c-0.1,0-0.1,0-0.2-0.1c-0.1-0.1-0.1-0.1-0.1-0.2v-2.2
			c0-0.1,0-0.1,0.1-0.2s0.1-0.1,0.2-0.1h1.4c0.1,0,0.1,0,0.1-0.1v-2.9c0-0.1,0-0.1,0.1-0.2c0.1-0.1,0.1-0.1,0.2-0.1h2.7
			c0.1,0,0.1,0,0.2,0.1s0.1,0.1,0.1,0.2v2.9c0,0.1,0,0.1,0.1,0.1h2.3c0.1,0,0.1,0,0.2,0.1c0.1,0.1,0.1,0.1,0.1,0.2v2.2
			C174.4,318.1,174.4,318.2,174.4,318.3z"/>
		<path class="st13" d="M187.6,312.6h-8.9c-0.1,0-0.1,0-0.1,0.1v6c0,0.1,0,0.1,0.1,0.1h6.2c0.2,0,0.2,0.1,0.2,0.2v1
			c0,0.2-0.1,0.2-0.2,0.2h-6.2c-0.1,0-0.1,0-0.1,0.1v6.1c0,0.1,0,0.1,0.1,0.1h8.9c0.2,0,0.2,0.1,0.2,0.2v1c0,0.2-0.1,0.2-0.2,0.2
			h-10.5c-0.2,0-0.2-0.1-0.2-0.2v-16.5c0-0.2,0.1-0.2,0.2-0.2h10.5c0.2,0,0.2,0.1,0.2,0.2v1C187.9,312.5,187.8,312.6,187.6,312.6z"
			/>
		<path class="st13" d="M198.5,311.1h1.2c0.2,0,0.2,0.1,0.2,0.2v16.5c0,0.2-0.1,0.2-0.2,0.2h-1.2c-0.2,0-0.2-0.1-0.2-0.2v-1
			c0,0,0-0.1,0-0.1c0,0-0.1,0-0.1,0c-0.4,0.5-0.8,0.8-1.3,1.1c-0.5,0.3-1.1,0.4-1.8,0.4c-1.1,0-2.1-0.3-2.8-0.9
			c-0.8-0.6-1.3-1.4-1.6-2.4c-0.2-0.7-0.3-1.8-0.3-3.1c0-1.3,0.1-2.3,0.3-3c0.3-1,0.8-1.8,1.6-2.4c0.8-0.6,1.7-0.9,2.9-0.9
			c0.6,0,1.2,0.1,1.7,0.4s1,0.6,1.3,1.1c0,0,0.1,0,0.1,0c0,0,0,0,0-0.1v-5.7C198.2,311.2,198.3,311.1,198.5,311.1z M198.1,323.8
			c0.1-0.4,0.1-1,0.1-1.8s0-1.4-0.1-1.8c-0.1-0.4-0.2-0.8-0.3-1.2c-0.2-0.5-0.5-1-1-1.3c-0.4-0.3-1-0.5-1.6-0.5
			c-0.6,0-1.2,0.2-1.7,0.5c-0.5,0.3-0.8,0.8-1,1.3c-0.2,0.4-0.3,0.8-0.4,1.2c-0.1,0.4-0.1,1.1-0.1,1.9c0,0.8,0,1.4,0.1,1.8
			c0.1,0.4,0.2,0.8,0.3,1.2c0.2,0.6,0.5,1,1,1.4c0.5,0.3,1.1,0.5,1.8,0.5c0.6,0,1.2-0.2,1.6-0.5c0.4-0.3,0.8-0.8,1-1.4
			C197.9,324.6,198,324.2,198.1,323.8z"/>
		<path class="st13" d="M217.6,327.9l-1-3.1c0,0,0-0.1-0.1-0.1h-7.2c0,0-0.1,0-0.1,0.1l-1,3.1c0,0.1-0.1,0.2-0.3,0.2h-1.3
			c-0.2,0-0.2-0.1-0.2-0.3l5.4-16.5c0-0.1,0.1-0.2,0.3-0.2h1.6c0.1,0,0.2,0.1,0.3,0.2l5.4,16.5l0,0.1c0,0.1-0.1,0.2-0.2,0.2h-1.3
			C217.7,328.1,217.6,328,217.6,327.9z M209.7,323.3C209.7,323.3,209.7,323.3,209.7,323.3l6.3,0c0,0,0.1,0,0.1,0c0,0,0-0.1,0-0.1
			l-3.1-9.9c0,0,0,0-0.1,0s-0.1,0-0.1,0L209.7,323.3C209.7,323.3,209.7,323.3,209.7,323.3z"/>
		<path class="st13" d="M231.5,321.9c0,1.3-0.1,2.3-0.3,3c-0.3,1-0.8,1.8-1.6,2.4c-0.8,0.6-1.7,0.9-2.9,0.9c-0.6,0-1.2-0.1-1.7-0.4
			s-1-0.6-1.3-1.1c0,0-0.1,0-0.1,0c0,0,0,0,0,0.1v5.7c0,0.2-0.1,0.2-0.2,0.2H222c-0.2,0-0.2-0.1-0.2-0.2v-16.5
			c0-0.2,0.1-0.2,0.2-0.2h1.2c0.2,0,0.2,0.1,0.2,0.2v1c0,0,0,0.1,0,0.1c0,0,0.1,0,0.1,0c0.4-0.5,0.8-0.8,1.3-1.1
			c0.5-0.3,1.1-0.4,1.8-0.4c1.1,0,2.1,0.3,2.8,0.9c0.8,0.6,1.3,1.4,1.6,2.4C231.3,319.6,231.5,320.7,231.5,321.9z M229.6,323.8
			c0.1-0.4,0.1-1.1,0.1-1.9c0-0.8,0-1.4-0.1-1.8c-0.1-0.4-0.2-0.8-0.3-1.2c-0.2-0.6-0.5-1-1-1.4c-0.5-0.3-1.1-0.5-1.8-0.5
			c-0.6,0-1.2,0.2-1.6,0.5c-0.4,0.3-0.8,0.8-1,1.4c-0.1,0.3-0.2,0.7-0.3,1.1c-0.1,0.4-0.1,1-0.1,1.8s0,1.4,0.1,1.8
			c0.1,0.4,0.2,0.8,0.3,1.2c0.2,0.5,0.5,1,1,1.3c0.4,0.3,1,0.5,1.6,0.5c0.6,0,1.2-0.2,1.7-0.5s0.8-0.8,1-1.3
			C229.4,324.6,229.5,324.2,229.6,323.8z"/>
		<path class="st13" d="M244.2,321.9c0,1.3-0.1,2.3-0.3,3c-0.3,1-0.8,1.8-1.6,2.4c-0.8,0.6-1.7,0.9-2.9,0.9c-0.6,0-1.2-0.1-1.7-0.4
			s-1-0.6-1.3-1.1c0,0-0.1,0-0.1,0c0,0,0,0,0,0.1v5.7c0,0.2-0.1,0.2-0.2,0.2h-1.2c-0.2,0-0.2-0.1-0.2-0.2v-16.5
			c0-0.2,0.1-0.2,0.2-0.2h1.2c0.2,0,0.2,0.1,0.2,0.2v1c0,0,0,0.1,0,0.1c0,0,0.1,0,0.1,0c0.4-0.5,0.8-0.8,1.3-1.1
			c0.5-0.3,1.1-0.4,1.8-0.4c1.1,0,2.1,0.3,2.8,0.9c0.8,0.6,1.3,1.4,1.6,2.4C244.1,319.6,244.2,320.7,244.2,321.9z M242.4,323.8
			c0.1-0.4,0.1-1.1,0.1-1.9c0-0.8,0-1.4-0.1-1.8c-0.1-0.4-0.2-0.8-0.3-1.2c-0.2-0.6-0.5-1-1-1.4c-0.5-0.3-1.1-0.5-1.8-0.5
			c-0.6,0-1.2,0.2-1.6,0.5c-0.4,0.3-0.8,0.8-1,1.4c-0.1,0.3-0.2,0.7-0.3,1.1c-0.1,0.4-0.1,1-0.1,1.8s0,1.4,0.1,1.8
			c0.1,0.4,0.2,0.8,0.3,1.2c0.2,0.5,0.5,1,1,1.3c0.4,0.3,1,0.5,1.6,0.5c0.6,0,1.2-0.2,1.7-0.5s0.8-0.8,1-1.3
			C242.1,324.6,242.3,324.2,242.4,323.8z"/>
		<path class="st13" d="M248.7,327.8c-0.7-0.3-1.2-0.7-1.6-1.2c-0.4-0.5-0.6-1-0.6-1.6v-0.3c0-0.2,0.1-0.2,0.2-0.2h1.2
			c0.2,0,0.2,0.1,0.2,0.2v0.2c0,0.5,0.3,1,0.8,1.4c0.6,0.4,1.3,0.6,2.1,0.6c0.8,0,1.5-0.2,2-0.6c0.5-0.4,0.8-0.9,0.8-1.4
			c0-0.4-0.1-0.7-0.4-1c-0.3-0.3-0.6-0.5-0.9-0.6s-0.9-0.3-1.7-0.6c-0.9-0.3-1.6-0.5-2.2-0.8c-0.6-0.3-1.1-0.6-1.5-1.1
			c-0.4-0.5-0.6-1-0.6-1.8c0-1,0.4-1.9,1.2-2.5c0.8-0.6,1.9-0.9,3.2-0.9c0.9,0,1.7,0.1,2.4,0.4c0.7,0.3,1.2,0.7,1.6,1.2
			c0.4,0.5,0.6,1.1,0.6,1.7v0.1c0,0.2-0.1,0.2-0.2,0.2h-1.1c-0.2,0-0.2-0.1-0.2-0.2V319c0-0.5-0.3-1-0.8-1.4
			c-0.5-0.4-1.2-0.6-2.1-0.6c-0.8,0-1.5,0.2-2,0.5c-0.5,0.3-0.8,0.8-0.8,1.4c0,0.5,0.2,1,0.7,1.3s1.2,0.6,2.3,0.9
			c0.9,0.3,1.7,0.5,2.3,0.8c0.6,0.2,1.1,0.6,1.5,1.1c0.4,0.5,0.6,1.1,0.6,1.8c0,1-0.4,1.9-1.2,2.5s-1.9,0.9-3.3,0.9
			C250.2,328.2,249.4,328,248.7,327.8z"/>
		<path class="st13" d="M256.6,310.4v-0.2c0-0.1,0-0.1,0.1-0.1h3.2c0.1,0,0.1,0,0.1,0.1v0.2c0,0.1,0,0.1-0.1,0.1h-1.3
			c0,0-0.1,0-0.1,0.1v4.3c0,0.1,0,0.1-0.1,0.1h-0.2c-0.1,0-0.1,0-0.1-0.1v-4.3c0,0,0-0.1-0.1-0.1h-1.2
			C256.6,310.6,256.6,310.5,256.6,310.4z M264.3,310.1h0.3c0.1,0,0.1,0,0.1,0.1v4.7c0,0.1,0,0.1-0.1,0.1h-0.2c-0.1,0-0.1,0-0.1-0.1
			v-3.8c0,0,0,0,0-0.1c0,0,0,0,0,0l-1,1.6c0,0.1-0.1,0.1-0.2,0.1h0c-0.1,0-0.1,0-0.2-0.1l-1-1.6c0,0,0,0,0,0c0,0,0,0,0,0.1v3.8
			c0,0.1,0,0.1-0.1,0.1h-0.2c-0.1,0-0.1,0-0.1-0.1v-4.7c0-0.1,0-0.1,0.1-0.1h0.3c0.1,0,0.1,0,0.2,0.1l1.2,1.9c0,0,0,0,0,0s0,0,0,0
			l1.2-1.9C264.2,310.2,264.3,310.1,264.3,310.1z"/>
	</g>
</g>
<g>
	<path class="st14" d="M366.4,247c0.7,0.4,1.3,1,1.8,1.7c0.4,0.7,0.7,1.5,0.7,2.4c0,0.9-0.2,1.7-0.6,2.4s-1,1.3-1.8,1.8
		s-1.6,0.6-2.5,0.6c-0.9,0-1.7-0.2-2.5-0.6c-0.7-0.4-1.3-1-1.8-1.8s-0.6-1.6-0.6-2.4c0-0.9,0.2-1.7,0.7-2.4c0.4-0.7,1-1.3,1.8-1.7
		s1.6-0.6,2.4-0.6C364.8,246.4,365.6,246.6,366.4,247z M365.9,254.6c0.6-0.3,1.1-0.8,1.4-1.4s0.5-1.3,0.5-2c0-0.7-0.2-1.4-0.5-1.9
		c-0.3-0.6-0.8-1.1-1.4-1.4c-0.6-0.3-1.3-0.5-2-0.5s-1.4,0.2-2,0.5c-0.6,0.3-1.1,0.8-1.4,1.4c-0.3,0.6-0.5,1.2-0.5,1.9
		c0,0.7,0.2,1.4,0.5,2c0.3,0.6,0.8,1.1,1.4,1.4c0.6,0.3,1.3,0.5,2,0.5S365.3,254.9,365.9,254.6z M365.3,251
		c-0.1,0.2-0.3,0.3-0.5,0.4c-0.1,0-0.1,0.1-0.1,0.1l0.6,1.6l0,0.1c0,0.1-0.1,0.2-0.2,0.2h-0.3c-0.1,0-0.2-0.1-0.3-0.2l-0.6-1.6
		c0,0,0-0.1-0.1-0.1h-0.4c-0.1,0-0.1,0-0.1,0.1v1.5c0,0.2-0.1,0.2-0.2,0.2h-0.3c-0.2,0-0.2-0.1-0.2-0.2v-3.9c0-0.2,0.1-0.2,0.2-0.2
		h1.3c0.4,0,0.7,0.1,0.9,0.4c0.2,0.2,0.4,0.6,0.4,0.9C365.5,250.6,365.4,250.8,365.3,251z M363.4,249.8v1.1c0,0.1,0,0.1,0.1,0.1h0.6
		c0.2,0,0.3-0.1,0.4-0.2s0.2-0.3,0.2-0.5c0-0.2-0.1-0.4-0.2-0.5c-0.1-0.1-0.3-0.2-0.4-0.2L363.4,249.8
		C363.4,249.7,363.4,249.7,363.4,249.8z"/>
</g>
</svg>
